<?xml version="1.0" encoding="UTF-8"?>
<svg width="1080px" height="1080px" viewBox="0 0 1080 1080" version="1.1" xmlns="http://www.w3.org/2000/svg" xmlns:xlink="http://www.w3.org/1999/xlink">
    <title>Symbol_white</title>
    <g id="Symbol_white" stroke="none" stroke-width="1" fill="none" fill-rule="evenodd">
        <path d="M854,738.384592 C854,829.161125 779.890733,903 688.7767,903 L372,903 L701.211277,575 C786.428291,581.468119 854,651.847538 854,738.384592 L854,738.384592 Z M325,560 L325,179 L688.621119,179 C694.835561,179 700.96355,179.333873 707,180.011737 L325,560 Z M920.027147,342.971332 C920.027147,266.215852 882.061573,198.131535 823.820898,156.288364 L981,0 L886.971353,0.536256324 L762.095043,124.694772 C738.980918,116.979764 714.248855,112.790894 688.5501,112.790894 L258.641623,112.790894 L258.641623,718.264755 L776.234191,203.605396 C822.854206,232.720067 853.910472,284.306914 853.910472,342.971332 C853.910472,433.639123 779.739723,507.394604 688.5501,507.394604 L674.86377,507.394604 L99,1080 L192.494422,1080 L305.393922,967.735245 L688.5501,967.735245 C816.184028,967.735245 920.027147,864.485666 920.027147,737.575042 C920.027147,653.873524 874.724887,580.689713 807.366775,540.399663 C874.796117,500.11973 920.027147,426.713322 920.027147,342.971332 L920.027147,342.971332 Z" id="Fill-26" fill="#FFFFFF"></path>
    </g>
</svg>