<?xml version="1.0" encoding="UTF-8"?>
<svg width="153px" height="153px" viewBox="0 0 153 153" version="1.1" xmlns="http://www.w3.org/2000/svg" xmlns:xlink="http://www.w3.org/1999/xlink">
    <title>19C4EA7D-6F80-4218-A04D-FCF41DB087A2@3x</title>
    <defs>
        <linearGradient x1="50%" y1="0%" x2="50%" y2="100%" id="linearGradient-1">
            <stop stop-color="#58595B" offset="0%"></stop>
            <stop stop-color="#231F20" offset="100%"></stop>
        </linearGradient>
    </defs>
    <g id="Dashboard" stroke="none" stroke-width="1" fill="none" fill-rule="evenodd">
        <g id="NewCosmoscan_Dashboard_Loading" transform="translate(-259.000000, -161.000000)" fill-rule="nonzero">
            <g id="Token" transform="translate(335.378680, 237.600505) rotate(-315.000000) translate(-335.378680, -237.600505) translate(270.378680, 194.600505)">
                <g id="Group-12" transform="translate(0.514719, 0.343146)">
                    <g id="Group-11" transform="translate(0.000000, -0.000000)">
                        <path d="M12.830095,25.9689757 C-8.45488797,41.9078926 -2.6465821,64.8240865 25.7303606,77.1783475 C54.1073032,89.5326084 94.428599,86.5880696 115.722686,70.6491526 C137.016773,54.7102356 131.199363,31.8031862 102.82242,19.4397808 C74.4454777,7.07637528 34.1241819,10.0209142 12.830095,25.9598311" id="Path-Copy-19" stroke="#FFFFFF" stroke-width="0.5" fill="#FFFFFF"></path>
                        <path d="M12.830095,14.1779265 C-8.45488797,30.1168434 -2.6465821,53.0330373 25.7303606,65.3872983 C54.1073032,77.7415592 94.428599,74.7970204 115.722686,58.8581034 C137.016773,42.9191864 131.199363,20.012137 102.82242,7.64873156 C74.4454777,-4.71467392 34.1241819,-1.77013504 12.830095,14.1687819" id="Path" fill="url(#linearGradient-1)"></path>
                    </g>
                    <path d="M52.6142591,11.9375165 L48.972688,14.6808757 L50.5931871,21.0820471 C49.3609368,21.5270648 48.1965431,22.1426368 47.1336946,22.9109533 L30.5190265,35.347515 L61.9184732,48.9820102 L55.2270863,22.4171486 C58.6533618,21.7050464 62.2125949,22.0231164 65.459901,23.3316017 C70.1666317,25.3799766 71.131648,29.1841013 67.5993241,31.8268707 L67.0804002,32.2200855 L74.5183091,61.7752087 L78.1598802,59.0318495 L76.7032518,53.234217 L91.5062382,42.1510458 C96.440567,38.4932336 95.1022897,33.1345386 88.511046,30.2631559 C83.882887,28.4131639 78.8082082,28.0021932 73.9447617,29.0835115 C74.4636855,26.2212734 72.397094,23.2584454 68.0545204,21.3746721 C63.8048933,19.662767 59.1649476,19.1720067 54.6535389,19.9572699 L52.6142591,11.8917938 M75.8474826,49.8324516 L71.5959483,32.9242144 C75.2375194,30.6015036 81.4828138,30.1808552 85.9710502,32.1743629 C90.6686769,34.2135932 91.6245893,38.017718 88.1013692,40.6604873 L75.8474826,49.805018 M56.274038,43.4495692 L36.5185149,34.8719994 L50.5749793,24.3466446 C50.8206031,24.1623534 51.0758788,23.9914106 51.3397092,23.8345509 L56.274038,43.4495692" id="Shape" fill="#FFFFFF"></path>
                </g>
            </g>
        </g>
    </g>
</svg>