<?xml version="1.0" encoding="UTF-8"?>
<svg width="16px" height="16px" viewBox="0 0 16 16" version="1.1" xmlns="http://www.w3.org/2000/svg" xmlns:xlink="http://www.w3.org/1999/xlink">
    <title>B454D546-DBD2-444C-8986-62AB06873387</title>
    <g id="Validator" stroke="none" stroke-width="1" fill="none" fill-rule="evenodd">
        <g id="NewCosmoscan_ValidatorsDetails_Light" transform="translate(-334.000000, -2395.000000)" fill-rule="nonzero">
            <g id="Footer" transform="translate(0.000000, 2373.000000)">
                <g id="Group-4" transform="translate(144.000000, 22.000000)">
                    <g id="CoinGecko" transform="translate(190.000000, 0.000000)">
                        <path d="M15.9776448,7.95343079 C15.996946,12.3654287 12.436105,15.9578425 8.02410726,15.977489 C3.6121095,15.9968184 0.0196725363,12.4360009 -3.18172669e-06,8.02400322 C-0.0193608165,3.61200556 3.54143329,0.0195454117 7.95343079,-0.000155699587 L7.95343079,-0.000155699587 C10.0721836,-0.00938620072 12.1078841,0.82329397 13.612691,2.31485605 C15.1174979,3.80641813 15.9681419,5.83467791 15.9776448,7.95343079 Z" id="Path" fill="#FFFFFF"></path>
                        <path d="M15.3785104,7.95632527 C15.3930521,10.9448782 13.6059169,13.6479762 10.8503807,14.804992 C8.0948445,15.9620079 4.91365749,15.3450474 2.79041034,13.2418387 C0.667163184,11.13863 0.0200658775,7.96343614 1.15090122,5.19705278 C2.28173657,2.43066946 4.96776712,0.617983365 7.95632527,0.604220259 L7.95632527,0.604220259 C12.035473,0.586417741 15.3575991,3.87719075 15.3785104,7.95632527 Z" id="Path" fill="#1400A5"></path>
                        <path d="M8.12478356,1.08021704 C8.59445568,0.996851867 9.07513954,0.996851867 9.54481166,1.08021704 C10.0190077,1.15540006 10.4773858,1.3089753 10.9011613,1.53464918 C11.3225965,1.76620696 11.6867211,2.08054665 12.049109,2.37520392 C12.411497,2.66986119 12.7721482,2.9714652 13.1154326,3.30143504 C13.4658888,3.62623514 13.7717046,3.99609507 14.0248758,4.40133447 C14.2854903,4.80339409 14.4991469,5.23400913 14.6616597,5.68474348 C14.9702104,6.59129218 15.0773059,7.56788712 14.92332,8.49932828 L14.8775873,8.49932828 C14.7230225,7.57599164 14.5134627,6.69607208 14.182914,5.85899071 C14.027743,5.43822609 13.8451939,5.02807075 13.6364376,4.63115558 C13.4187087,4.23202967 13.1786661,3.84548752 12.9174507,3.47336669 C12.6518963,3.09852622 12.3264525,2.76995318 11.9541703,2.50082401 C11.5790468,2.23337478 11.1477704,2.06028534 10.7303875,1.89587932 C10.3130046,1.73147329 9.89909504,1.56301501 9.46376643,1.43797381 C9.02843779,1.31293261 8.58616245,1.21915171 8.12420466,1.12826528 L8.12478356,1.08021704 Z" id="Path" fill="#1400A5"></path>
                        <path d="M11.736506,5.34840579 C11.2004498,5.19326207 10.6447111,4.97328221 10.0820257,4.75098673 C10.0496076,4.60973648 9.92456639,4.43375256 9.67158955,4.21898271 C9.30399156,3.90001189 8.61337049,3.90811641 8.01653029,4.04936667 C7.35774842,3.89422295 6.70707108,3.83922798 6.08244394,3.99147721 C0.973700462,5.39876961 3.87048828,8.8321926 1.99487027,12.2835613 C2.26174061,12.84972 5.1382671,16.1528918 9.30051819,15.2666044 C9.30051819,15.2666044 7.87701676,11.8459171 11.089302,10.2041724 C13.6949059,8.86750517 15.5774707,6.39446806 11.736506,5.34840579 Z" id="Path" fill="#FFFFFF"></path>
                        <path d="M12.3675108,7.59509516 C12.3684574,7.76613849 12.2305757,7.90557238 12.0595323,7.90654047 C11.888489,7.90748884 11.7490537,7.76960856 11.7480837,7.59856523 C11.7471336,7.42752189 11.8850124,7.28808511 12.0560558,7.28711882 C12.2269738,7.2864808 12.3662267,7.42418066 12.3675108,7.59509516 L12.3675108,7.59509516 Z" id="Path" fill="#1400A5"></path>
                        <path d="M8.01653029,4.0470511 C8.38875944,4.07368024 9.73468905,4.51016663 10.0820257,4.74867116 C9.79257849,3.9092742 8.81829914,3.79754757 8.01653029,4.0470511 Z" id="Path" fill="#FFFFFF"></path>
                        <path d="M8.37081395,6.16985701 C8.37113335,6.95891248 7.73173664,7.5988275 6.94268121,7.59914742 C6.15362573,7.59946685 5.51371067,6.96007019 5.51339071,6.17101471 C5.5130712,5.38195924 6.15246786,4.74204418 6.94152334,4.74172442 L6.94152334,4.74172442 C7.73012695,4.74172442 8.36959574,5.38067473 8.37023481,6.16927811 L8.37081395,6.16985701 Z" id="Path" fill="#1400A5"></path>
                        <path d="M7.94706295,6.18259268 C7.94706295,6.73761721 7.49712671,7.18755345 6.94210223,7.18755345 C6.38707771,7.18755345 5.93714147,6.73761721 5.93714147,6.18259268 C5.93714147,5.6275682 6.38707771,5.17763192 6.94210223,5.17763192 L6.94210223,5.17763192 C7.49712671,5.17763192 7.94706295,5.6275682 7.94706295,6.18259268 Z" id="Path" fill="#FFFFFF"></path>
                        <path d="M13.524711,8.2249323 C12.3669221,9.04059457 11.0505161,9.65943276 9.18300261,9.65943276 C8.308872,9.65943276 8.13173029,8.73320165 7.55399365,9.18589709 C7.25586299,9.42092824 6.20459067,9.94656438 5.37040378,9.90662066 C4.53621688,9.86667694 3.18391946,9.37809005 2.80705918,7.59683184 C2.65770441,9.37809005 2.58129034,10.689286 1.91035168,12.1926749 C3.2418089,14.3247431 6.41646605,15.9693822 9.29820261,15.2608154 C8.99080965,13.0986447 10.8832156,10.9810488 11.944908,9.89909504 C12.3501342,9.48865889 13.1200638,8.81887803 13.524711,8.2255112 L13.524711,8.2249323 Z" id="Path" fill="#FFFFFF"></path>
                        <path d="M13.4795572,8.27819059 C13.1200638,8.60584486 12.6922607,8.84840165 12.2569321,9.06259256 C11.8162113,9.27160293 11.3568775,9.43886247 10.8849523,9.56217849 C10.4125744,9.68432523 9.91993524,9.77636945 9.42092824,9.73121568 C8.92192121,9.68606191 8.41191522,9.51644583 8.08136647,9.14248 L8.09699662,9.12453427 C8.50222275,9.38735236 8.96996945,9.47997548 9.4354006,9.49329005 C9.90716872,9.50778673 10.3790647,9.46894758 10.8421141,9.37751116 C11.3098565,9.27946496 11.7674298,9.13798742 12.2088839,8.95491819 C12.6505803,8.77256647 13.0876457,8.56126999 13.4639271,8.26024486 L13.4795572,8.27819059 Z" id="Path" fill="#1400A5"></path>
                    </g>
                </g>
            </g>
        </g>
    </g>
</svg>