<?xml version="1.0" encoding="UTF-8"?>
<svg width="14px" height="16px" viewBox="0 0 14 16" version="1.1" xmlns="http://www.w3.org/2000/svg" xmlns:xlink="http://www.w3.org/1999/xlink">
    <title>3F245858-A774-4D3B-9D26-317D45B5DC5F</title>
    <g id="Validator" stroke="none" stroke-width="1" fill="none" fill-rule="evenodd">
        <g id="NewCosmoscan_ValidatorsDetails_Light" transform="translate(-272.000000, -2395.000000)" fill="#FFFFFF" fill-rule="nonzero">
            <g id="Footer" transform="translate(0.000000, 2373.000000)">
                <g id="Group-4" transform="translate(144.000000, 22.000000)">
                    <g id="discord" transform="translate(128.000000, 0.000000)">
                        <path d="M8.86706158,6.84202891 C9.03069794,7.00566527 9.11251612,7.21021072 9.11251612,7.45566526 C9.11251612,7.7011198 9.03069794,7.91594161 8.86706158,8.09999979 C8.72384704,8.26363614 8.53978886,8.34545432 8.31475614,8.34545432 C8.17160706,8.34545432 8.03860342,8.30454523 7.91594161,8.22272705 C7.79314888,8.14090888 7.69090889,8.03860342 7.60909071,7.91594161 C7.54769435,7.77272707 7.51706162,7.61930162 7.51706162,7.45566526 C7.51706162,7.33293799 7.53748344,7.22042163 7.57839253,7.11818163 C7.61930162,7.01594163 7.67048707,6.92384709 7.73181798,6.84202891 C7.81363616,6.76021073 7.90566525,6.69887982 8.0079707,6.65797073 C8.11021069,6.61706164 8.21251615,6.59657437 8.31475614,6.59657437 C8.53978886,6.59657437 8.72384704,6.67839255 8.86706158,6.84202891 Z M4.87840569,6.84202891 C5.04204205,6.67839255 5.2363635,6.59657437 5.46136349,6.59657437 C5.68636349,6.59657437 5.87045439,6.67839255 6.0136362,6.84202891 C6.17727256,7.00566527 6.25909074,7.21021072 6.25909074,7.45566526 C6.25909074,7.7011198 6.17727256,7.91594161 6.0136362,8.09999979 C5.87045439,8.26363614 5.68636349,8.34545432 5.46136349,8.34545432 C5.2363635,8.34545432 5.04204205,8.26363614 4.87840569,8.09999979 C4.73523042,7.91594161 4.66363624,7.7011198 4.66363624,7.45566526 C4.66363624,7.21021072 4.73523042,7.00566527 4.87840569,6.84202891 Z M13.7454542,1.62613959 L13.7454542,15.7090905 C12.5590906,14.665876 11.3420288,13.561396 10.0943343,12.3954542 L10.523847,13.8681815 L1.5954545,13.8681815 C1.16590906,13.8681815 0.787496706,13.714756 0.460227261,13.4079706 C0.153409087,13.0806978 0,12.6920288 0,12.2420288 L0,1.62613959 C0,1.17613961 0.153409087,0.797727252 0.460227261,0.490909078 C0.787496706,0.163636359 1.16590906,0 1.5954545,0 L12.1499997,0 C12.5795778,0 12.9476942,0.163636359 13.2545451,0.490909078 C13.5818178,0.797727252 13.7454542,1.17613961 13.7454542,1.62613959 Z M11.5056651,9.05111976 C11.5056651,8.31475614 11.4136361,7.56818162 11.2295124,6.81133073 C11.0454543,6.03409075 10.8511197,5.45113295 10.6465743,5.06250314 L10.370487,4.47954534 C10.1658761,4.31590898 9.94090883,4.18295116 9.69545429,4.08068498 C9.47048702,3.95795771 9.26587612,3.87613953 9.08181794,3.83523044 C8.91818158,3.77386026 8.76475613,3.73295117 8.62160704,3.71250317 C8.4783925,3.67159408 8.36587614,3.65113299 8.28405796,3.65113299 L8.16139615,3.65113299 L8.0693016,3.77386026 C8.45797069,3.89658753 8.81594158,4.04999989 9.1432143,4.2340908 C9.47048702,4.39772716 9.69545429,4.53068497 9.81818156,4.63295115 L10.0022397,4.78636351 C9.10223976,4.27499989 8.1204216,4.0090908 7.05678527,3.98863626 C5.99318166,3.96818171 5.02159405,4.15227262 4.14204207,4.54090897 L3.68181808,4.78636351 C4.11136353,4.37727261 4.79658751,4.02954535 5.73749658,3.74318172 L5.67613949,3.65113299 C4.96022387,3.65113299 4.22386025,3.92727262 3.46704864,4.47954534 C3.38523046,4.6431817 3.28295119,4.85795769 3.16022392,5.12386023 C3.03749665,5.38977586 2.86363629,5.93181802 2.63863629,6.74999982 C2.43409084,7.54769435 2.33181812,8.31475614 2.33181812,9.05111976 C2.37272721,9.15342521 2.44432139,9.26587612 2.54658757,9.38866884 C2.66931484,9.51133066 2.93523047,9.68524338 3.34432137,9.91021065 C3.75341226,10.1352434 4.21363625,10.2476943 4.72499987,10.2476943 C4.92954532,10.022727 5.10341223,9.80797065 5.2465875,9.6034252 C4.96022387,9.52160702 4.69432133,9.40909066 4.44886679,9.26587612 C4.22386025,9.10223976 4.07045444,8.95909067 3.98863626,8.8363634 L3.86590899,8.68293795 C3.90681808,8.70342522 3.94772717,8.7341234 3.98863626,8.77496704 C4.04999989,8.79545431 4.10113298,8.81594158 4.14204207,8.8363634 C4.18295116,8.85678522 4.20341225,8.86706158 4.20341225,8.86706158 C4.89886678,9.25566521 5.66590894,9.49090884 6.50454528,9.57272702 C7.36363617,9.63412338 8.23293796,9.49090884 9.11251612,9.1432143 C9.41930157,9.04090885 9.71594156,8.8874834 10.0022397,8.68293795 C9.73636338,9.11251612 9.26587612,9.42951248 8.59090886,9.63412338 L9.11251612,10.2476943 C9.43978884,10.2476943 9.73636338,10.2068506 10.0022397,10.1250325 C10.2886688,10.022727 10.5136361,9.92042156 10.6772724,9.81818156 C10.8613961,9.69545429 11.0147561,9.58293793 11.1374833,9.48069793 C11.2806979,9.35797066 11.372727,9.25566521 11.4136361,9.17384703 L11.5056651,9.05111976 Z" id="Shape"></path>
                    </g>
                </g>
            </g>
        </g>
    </g>
</svg>