<?xml version="1.0" encoding="UTF-8"?>
<svg width="16px" height="16px" viewBox="0 0 16 16" version="1.1" xmlns="http://www.w3.org/2000/svg" xmlns:xlink="http://www.w3.org/1999/xlink">
    <title>12FA5654-3B6A-42B3-AFE8-90D0817B5DD4</title>
    <g id="Validator" stroke="none" stroke-width="1" fill="none" fill-rule="evenodd">
        <g id="NewCosmoscan_ValidatorsDetails_Light" transform="translate(-144.000000, -2395.000000)" fill="#FFFFFF" fill-rule="nonzero">
            <g id="Footer" transform="translate(0.000000, 2373.000000)">
                <g id="github" transform="translate(144.000000, 22.000000)">
                    <path d="M7.85454525,0.0204545449 C3.514909,0.0204545449 0,3.47645445 0,7.73885434 C0,11.1496906 2.25032721,14.0421269 5.37054531,15.0619087 C5.76327257,15.1345632 5.90727257,14.8956542 5.90727257,14.6907814 C5.90727257,14.5075087 5.90072712,14.021836 5.89745439,13.3784178 C3.71258172,13.8437996 3.25178173,12.3429269 3.25178173,12.3429269 C2.89439992,11.4520906 2.37796357,11.2138361 2.37796357,11.2138361 C1.66647268,10.7353634 2.43294539,10.7451815 2.43294539,10.7451815 C3.22167264,10.7988543 3.6359999,11.5404542 3.6359999,11.5404542 C4.33636352,12.7205997 5.47461804,12.3795815 5.92363621,12.1825633 C5.99432711,11.6831451 6.19658165,11.3434361 6.42109074,11.1503452 C4.67672715,10.9572543 2.84334538,10.2935452 2.84334538,7.3363089 C2.84334538,6.49390892 3.14770901,5.80532712 3.65170899,5.26532713 C3.56334536,5.07027259 3.29825446,4.28547261 3.72043627,3.22249082 C3.72043627,3.22249082 4.37825443,3.01565447 5.88043621,4.01383626 C6.50879983,3.84234535 7.17643617,3.75725445 7.84407252,3.75332717 C8.51170887,3.75725445 9.17934521,3.84234535 9.80770883,4.01383626 C11.3000724,3.01565447 11.9578906,3.22249082 11.9578906,3.22249082 C12.3800724,4.28547261 12.1149815,5.07027259 12.036436,5.26532713 C12.5371633,5.80532712 12.8415269,6.49390892 12.8415269,7.3363089 C12.8415269,10.3013997 11.005527,10.9539815 9.25789066,11.1437997 C9.53279975,11.3755088 9.78807247,11.8487451 9.78807247,12.5720178 C9.78807247,13.6048905 9.77825429,14.4348542 9.77825429,14.6855451 C9.77825429,14.8877996 9.91570883,15.1293269 10.3182543,15.0520905 C13.4607269,14.0388542 15.7090905,11.1444543 15.7090905,7.73885434 C15.7090905,3.47645445 12.1922179,0.0204545449 7.85454525,0.0204545449 L7.85454525,0.0204545449 Z" id="Path"></path>
                </g>
            </g>
        </g>
    </g>
</svg>