<?xml version="1.0" encoding="UTF-8"?>
<svg width="28px" height="28px" viewBox="0 0 28 28" version="1.1" xmlns="http://www.w3.org/2000/svg" xmlns:xlink="http://www.w3.org/1999/xlink">
    <title>F557F3DB-2AB6-4E52-B5C5-D7CE239A6B58</title>
    <defs>
        <polygon id="path-1" points="16 16.0306905 27.9421176 16.0306905 27.9421176 27.9728051 16 27.9728051"></polygon>
    </defs>
    <g id="Connect-Wallet" stroke="none" stroke-width="1" fill="none" fill-rule="evenodd">
        <g id="NewCosmoscan_ConnectWallet" transform="translate(-362.000000, -1125.000000)">
            <g id="Ledger_icon_band_light" transform="translate(362.000000, 1125.000000)">
                <g transform="translate(0.000000, -0.000000)">
                    <path d="M19.8969946,0 L9.04300531,0 L9.04300531,14.6427583 L23.697678,14.6427583 L23.697678,3.78876902 C23.697678,1.70971181 21.9867747,0 19.9089089,0 C19.9053346,0 19.9005689,0 19.8969946,0 Z" id="Path" fill="#303030" fill-rule="nonzero"></path>
                    <path d="M5.6593248,1.13686838e-13 L3.78876902,1.13686838e-13 C1.71090324,1.13686838e-13 0,1.71090324 0,3.78876902 L0,5.6593248 L5.6593248,5.6593248 L5.6593248,1.13686838e-13 Z" id="Path" fill="#303030" fill-rule="nonzero"></path>
                    <polygon id="Path" fill="#303030" fill-rule="nonzero" points="0 9.04300531 5.6593248 9.04300531 5.6593248 14.7023301 0 14.7023301"></polygon>
                    <path d="M18.0860106,23.697678 L19.9565664,23.697678 C22.0356236,23.697678 23.7453354,21.9867747 23.7453354,19.9089089 C23.7453354,19.9053346 23.7453354,19.9005689 23.7453354,19.8969946 L23.7453354,18.0860106 L18.0860106,18.0860106 L18.0860106,23.697678 Z" id="Path" fill="#FFFFFF" fill-rule="nonzero"></path>
                    <polygon id="Path" fill="#303030" fill-rule="nonzero" points="9.04300531 18.0860106 14.7023301 18.0860106 14.7023301 23.7453354 9.04300531 23.7453354"></polygon>
                    <path d="M0,18.0860106 L0,19.9565664 C0,22.0344322 1.71090324,23.7453354 3.78876902,23.7453354 L5.6593248,23.7453354 L5.6593248,18.0860106 L0,18.0860106 Z" id="Path" fill="#303030" fill-rule="nonzero"></path>
                    <mask id="mask-2" fill="white">
                        <use xlink:href="#path-1"></use>
                    </mask>
                    <g id="Clip-2"></g>
                    <g id="Group-5" mask="url(#mask-2)">
                        <g transform="translate(15.999991, 16.030687)">
                            <path d="M5.97105882,11.9421176 L5.97105882,11.9421176 C2.67336061,11.9421176 -1.42108547e-14,9.26878772 -1.42108547e-14,5.97105882 L-1.42108547e-14,5.97105882 C-1.42108547e-14,2.67332992 2.67336061,5.06261699e-14 5.97105882,5.06261699e-14 C9.26878772,5.06261699e-14 11.9421483,2.67332992 11.9421483,5.97105882 L11.9421483,5.97105882 C11.9421483,9.26878772 9.26878772,11.9421176 5.97105882,11.9421176" id="Fill-1" fill="#303030"></path>
                            <path d="M8.07659847,7.30382916 C8.07659847,7.91543018 7.57907417,8.41295448 6.96744246,8.41295448 L4.84095652,8.41295448 L7.05095141,6.20305166 C7.62302302,6.24660153 8.07659847,6.72080102 8.07659847,7.30382916 L8.07659847,7.30382916 Z M4.52736061,6.10300051 L4.52736061,3.5327601 L6.96744246,3.5327601 C7.0091509,3.5327601 7.05030691,3.5350312 7.09078772,3.53960409 L4.52736061,6.10300051 Z M8.52004604,4.64200818 C8.52004604,4.12425882 8.26540665,3.66497494 7.87477749,3.38271407 L8.92899744,2.32846343 L8.2983376,2.33205422 L7.46076215,3.16962967 C7.30571355,3.11754783 7.1398312,3.08931253 6.96744246,3.08931253 L4.08388235,3.08931253 L4.08388235,7.17357852 L7.55556522,3.70189565 C7.8682711,3.8982844 8.07659847,4.2462844 8.07659847,4.64200818 C8.07659847,5.2536399 7.57907417,5.7511335 6.96744246,5.7511335 L6.87564706,5.7511335 L3.0131202,9.61366036 L3.64021995,9.61366036 L4.39747826,8.85643274 L6.96744246,8.85643274 C7.82355499,8.85643274 8.52004604,8.159911 8.52004604,7.30382916 C8.52004604,6.73921535 8.21617903,6.24555806 7.76441432,5.97379335 C8.21667008,5.70209003 8.52004604,5.20686752 8.52004604,4.64200818 L8.52004604,4.64200818 Z" id="Fill-4" fill="#F5F5F5"></path>
                        </g>
                    </g>
                </g>
            </g>
        </g>
    </g>
</svg>