<?xml version="1.0" encoding="UTF-8"?>
<svg width="28px" height="28px" viewBox="0 0 28 28" version="1.1" xmlns="http://www.w3.org/2000/svg" xmlns:xlink="http://www.w3.org/1999/xlink">
    <title>250A1660-DEEF-4A50-ABC6-2F102CC95EC5</title>
    <defs>
        <polygon id="path-1" points="16 16.0306905 27.9421176 16.0306905 27.9421176 27.9728051 16 27.9728051"></polygon>
    </defs>
    <g id="Connect-Wallet" stroke="none" stroke-width="1" fill="none" fill-rule="evenodd">
        <g id="NewCosmoscan_ConnectWallet" transform="translate(-362.000000, -526.000000)">
            <g id="Group" transform="translate(322.000000, 237.000000)">
                <g id="Ledger_icon_band_dark" transform="translate(40.000000, 289.000000)">
                    <g id="Group-4" transform="translate(0.000000, -0.000000)">
                        <path d="M19.8969946,0 L9.04300531,0 L9.04300531,14.6427583 L23.697678,14.6427583 L23.697678,3.78876902 C23.697678,1.70971181 21.9867747,0 19.9089089,0 C19.9053346,0 19.9005689,0 19.8969946,0 Z" id="Path" fill="#FFFFFF" fill-rule="nonzero"></path>
                        <path d="M5.6593248,1.13686838e-13 L3.78876902,1.13686838e-13 C1.71090324,1.13686838e-13 0,1.71090324 0,3.78876902 L0,5.6593248 L5.6593248,5.6593248 L5.6593248,1.13686838e-13 Z" id="Path" fill="#FFFFFF" fill-rule="nonzero"></path>
                        <polygon id="Path" fill="#FFFFFF" fill-rule="nonzero" points="0 9.04300531 5.6593248 9.04300531 5.6593248 14.7023301 0 14.7023301"></polygon>
                        <path d="M18.0860106,23.697678 L19.9565664,23.697678 C22.0356236,23.697678 23.7453354,21.9867747 23.7453354,19.9089089 C23.7453354,19.9053346 23.7453354,19.9005689 23.7453354,19.8969946 L23.7453354,18.0860106 L18.0860106,18.0860106 L18.0860106,23.697678 Z" id="Path" fill="#FFFFFF" fill-rule="nonzero"></path>
                        <polygon id="Path" fill="#FFFFFF" fill-rule="nonzero" points="9.04300531 18.0860106 14.7023301 18.0860106 14.7023301 23.7453354 9.04300531 23.7453354"></polygon>
                        <path d="M0,18.0860106 L0,19.9565664 C0,22.0344322 1.71090324,23.7453354 3.78876902,23.7453354 L5.6593248,23.7453354 L5.6593248,18.0860106 L0,18.0860106 Z" id="Path" fill="#FFFFFF" fill-rule="nonzero"></path>
                        <path d="M19.8969946,0 L9.04300531,0 L9.04300531,14.6427583 L23.697678,14.6427583 L23.697678,3.78876902 C23.697678,1.70971181 21.9867747,0 19.9089089,0 C19.9053346,0 19.9005689,0 19.8969946,0 Z" id="Path" fill="#FFFFFF" fill-rule="nonzero"></path>
                        <path d="M5.6593248,1.13686838e-13 L3.78876902,1.13686838e-13 C1.71090324,1.13686838e-13 0,1.71090324 0,3.78876902 L0,5.6593248 L5.6593248,5.6593248 L5.6593248,1.13686838e-13 Z" id="Path" fill="#FFFFFF" fill-rule="nonzero"></path>
                        <polygon id="Path" fill="#FFFFFF" fill-rule="nonzero" points="0 9.04300531 5.6593248 9.04300531 5.6593248 14.7023301 0 14.7023301"></polygon>
                        <path d="M18.0860106,23.697678 L19.9565664,23.697678 C22.0356236,23.697678 23.7453354,21.9867747 23.7453354,19.9089089 C23.7453354,19.9053346 23.7453354,19.9005689 23.7453354,19.8969946 L23.7453354,18.0860106 L18.0860106,18.0860106 L18.0860106,23.697678 Z" id="Path" fill="#FFFFFF" fill-rule="nonzero"></path>
                        <polygon id="Path" fill="#FFFFFF" fill-rule="nonzero" points="9.04300531 18.0860106 14.7023301 18.0860106 14.7023301 23.7453354 9.04300531 23.7453354"></polygon>
                        <path d="M0,18.0860106 L0,19.9565664 C0,22.0344322 1.71090324,23.7453354 3.78876902,23.7453354 L5.6593248,23.7453354 L5.6593248,18.0860106 L0,18.0860106 Z" id="Path" fill="#FFFFFF" fill-rule="nonzero"></path>
                        <mask id="mask-2" fill="white">
                            <use xlink:href="#path-1"></use>
                        </mask>
                        <g id="Clip-2"></g>
                        <path d="M21.9710496,27.9728051 L21.9710496,27.9728051 C18.6733514,27.9728051 15.9999908,25.2994752 15.9999908,22.0017463 L15.9999908,22.0017463 C15.9999908,18.7040174 18.6733514,16.0306875 21.9710496,16.0306875 C25.2687785,16.0306875 27.9421391,18.7040174 27.9421391,22.0017463 L27.9421391,22.0017463 C27.9421391,25.2994752 25.2687785,27.9728051 21.9710496,27.9728051" id="Fill-1" fill="#FFFFFF" mask="url(#mask-2)"></path>
                        <path d="M24.0765893,23.3345166 C24.0765893,23.9461176 23.579065,24.4436419 22.9674332,24.4436419 L20.8409473,24.4436419 L23.0509422,22.2337391 C23.6230138,22.277289 24.0765893,22.7514885 24.0765893,23.3345166 L24.0765893,23.3345166 Z M20.5273514,22.133688 L20.5273514,19.5634476 L22.9674332,19.5634476 C23.0091417,19.5634476 23.0502977,19.5657187 23.0907785,19.5702916 L20.5273514,22.133688 Z M24.5200368,20.6726957 C24.5200368,20.1549463 24.2653974,19.6956624 23.8747683,19.4134015 L24.9289882,18.3591509 L24.2983284,18.3627417 L23.4607529,19.2003171 C23.3057043,19.1482353 23.139822,19.12 22.9674332,19.12 L20.0838731,19.12 L20.0838731,23.204266 L23.555556,19.7325831 C23.8682619,19.9289719 24.0765893,20.2769719 24.0765893,20.6726957 C24.0765893,21.2843274 23.579065,21.781821 22.9674332,21.781821 L22.8756379,21.781821 L19.013111,25.6443478 L19.6402107,25.6443478 L20.3974691,24.8871202 L22.9674332,24.8871202 C23.8235458,24.8871202 24.5200368,24.1905985 24.5200368,23.3345166 C24.5200368,22.7699028 24.2161698,22.2762455 23.7644051,22.0044808 C24.2166609,21.7327775 24.5200368,21.237555 24.5200368,20.6726957 L24.5200368,20.6726957 Z" id="Fill-4" fill="#000000" mask="url(#mask-2)"></path>
                    </g>
                </g>
            </g>
        </g>
    </g>
</svg>