<?xml version="1.0" encoding="UTF-8"?>
<svg width="16px" height="14px" viewBox="0 0 16 14" version="1.1" xmlns="http://www.w3.org/2000/svg" xmlns:xlink="http://www.w3.org/1999/xlink">
    <title>AD274ADA-06CD-4E55-93B4-6F6AEFB2E942</title>
    <g id="Validator" stroke="none" stroke-width="1" fill="none" fill-rule="evenodd">
        <g id="NewCosmoscan_ValidatorsDetails_Light" transform="translate(-176.000000, -2396.000000)" fill="#FFFFFF" fill-rule="nonzero">
            <g id="Footer" transform="translate(0.000000, 2373.000000)">
                <g id="Group-4" transform="translate(144.000000, 22.000000)">
                    <g id="medium" transform="translate(32.000000, 1.333333)">
                        <path d="M14.455636,1.48205451 L15.7090905,0.282927265 L15.7090905,0.0204545449 L11.3668361,0.0204545449 L8.27214524,7.72314525 L4.75134533,0.0204545449 L0.198327267,0.0204545449 L0.198327267,0.282927265 L1.66254541,2.04561813 C1.80523632,2.17587267 1.8798545,2.36634539 1.86087268,2.5581272 L1.86087268,9.48518157 C1.90603631,9.73456338 1.82487268,9.99114519 1.6494545,10.1724543 L0,12.171436 L0,12.430636 L4.67672715,12.430636 L4.67672715,12.1681633 L3.02727265,10.1724543 C2.84858174,9.99049064 2.76414538,9.73849065 2.80014538,9.48518157 L2.80014538,3.49347263 L6.90545436,12.4339088 L7.38261799,12.4339088 L10.9125815,3.49347263 L10.9125815,10.6155815 C10.9125815,10.8034361 10.9125815,10.8420543 10.789527,10.9651088 L9.51970884,12.1936906 L9.51970884,12.4568179 L15.6802905,12.4568179 L15.6802905,12.1943451 L14.4562905,10.9958724 C14.3489451,10.9147088 14.2933087,10.7785634 14.3162178,10.6463452 L14.3162178,1.83158177 C14.2933087,1.69870905 14.3482905,1.56256359 14.455636,1.48205451 L14.455636,1.48205451 Z" id="Path"></path>
                    </g>
                </g>
            </g>
        </g>
    </g>
</svg>