<?xml version="1.0" encoding="UTF-8"?>
<svg width="16px" height="15px" viewBox="0 0 16 15" version="1.1" xmlns="http://www.w3.org/2000/svg" xmlns:xlink="http://www.w3.org/1999/xlink">
    <title>F2D36296-201E-4889-A1B1-314D8216672B</title>
    <g id="Validator" stroke="none" stroke-width="1" fill="none" fill-rule="evenodd">
        <g id="NewCosmoscan_ValidatorsDetails_Light" transform="translate(-240.000000, -2396.000000)" fill="#FFFFFF" fill-rule="nonzero">
            <g id="Footer" transform="translate(0.000000, 2373.000000)">
                <g id="Group-4" transform="translate(144.000000, 22.000000)">
                    <g id="telegram" transform="translate(96.000000, 1.333333)">
                        <path d="M6.16385438,8.65824523 L5.90399984,12.3132269 C6.27578165,12.3132269 6.43679983,12.1535179 6.62989073,11.961736 L8.37294523,10.2959179 L11.984727,12.940936 C12.6471269,13.3100996 13.1138178,13.1156997 13.2925087,12.3315542 L15.6632723,1.22260906 L15.6639269,1.22195451 C15.8740359,0.242754539 15.3098178,-0.140154542 14.664436,0.100063634 L0.729163617,5.43526349 C-0.221890903,5.80442712 -0.207490904,6.33460892 0.567490894,6.5748271 L4.13018171,7.68297252 L12.4055997,2.50486357 C12.7950542,2.24697267 13.1491633,2.38966357 12.8578906,2.64755448 L6.16385438,8.65824523 Z" id="Path"></path>
                    </g>
                </g>
            </g>
        </g>
    </g>
</svg>