<?xml version="1.0" encoding="UTF-8"?>
<svg width="16px" height="14px" viewBox="0 0 16 14" version="1.1" xmlns="http://www.w3.org/2000/svg" xmlns:xlink="http://www.w3.org/1999/xlink">
    <title>64BB4679-36F1-4E72-AE67-2AC79DB5B357</title>
    <g id="Validator" stroke="none" stroke-width="1" fill="none" fill-rule="evenodd">
        <g id="NewCosmoscan_ValidatorsDetails_Light" transform="translate(-208.000000, -2396.000000)" fill="#FFFFFF">
            <g id="Footer" transform="translate(0.000000, 2373.000000)">
                <g id="Group-4" transform="translate(144.000000, 22.000000)">
                    <g id="twitter" transform="translate(64.000000, 1.333333)">
                        <path d="M14.1013463,3.23769772 C14.3044811,7.85454525 10.9243182,13.0006271 4.94023811,13.0006271 C3.18496433,13.0012312 1.46779752,12.4887171 0,11.5261389 C1.70855289,11.7331598 3.4284547,11.2430425 4.77122997,10.16649 C3.36120367,10.1404888 2.17110464,9.19144302 1.76104321,7.88758851 C2.24381522,7.98191803 2.74189963,7.962818 3.21603001,7.83179415 C1.66570529,7.51436218 0.596403746,6.09296034 0.631072084,4.57242872 C1.06550969,4.81781555 1.56278366,4.96569767 2.09147581,4.98194846 C0.655448258,4.00581808 0.249178677,2.07576672 1.09367771,0.601278981 C2.68300432,2.586583 5.05778545,3.89314598 7.73645622,4.03019425 C7.26680858,1.97717863 8.79600729,0 10.8761075,0 C11.7707258,0.000395369652 12.6240804,0.376366693 13.2281376,1.03625828 C13.9512513,0.891263972 14.6437041,0.621834219 15.2746529,0.2399699 C15.0374365,0.996384165 14.5342104,1.64124474 13.8581263,2.05518239 C14.4977681,1.97819136 15.1219299,1.80411287 15.7090905,1.53894918 C15.2783747,2.19623401 14.7339449,2.77148059 14.1013463,3.23769772 Z" id="Path"></path>
                    </g>
                </g>
            </g>
        </g>
    </g>
</svg>