<?xml version="1.0" encoding="UTF-8"?>
<svg width="24px" height="24px" viewBox="0 0 24 24" version="1.1" xmlns="http://www.w3.org/2000/svg" xmlns:xlink="http://www.w3.org/1999/xlink">
    <title>Icon_TX_IBC@2x</title>
    <g id="Block-/-Transaction" stroke="none" stroke-width="1" fill="none" fill-rule="evenodd">
        <g id="Desktop_AllTransaction_Message" transform="translate(-486.000000, -527.000000)">
            <g id="Icon_TX_IBC" transform="translate(486.000000, 527.000000)">
                <g id="Group-15-Copy-15" fill="#4520E6">
                    <circle id="Oval-Copy-10" cx="12" cy="12" r="12"></circle>
                </g>
                <path d="M5.264,15 L5.264,9.4 L4.224,9.4 L4.224,15 L5.264,15 Z M10.76,15 C11.4746667,15 12.0186667,14.868 12.392,14.604 C12.7653333,14.34 12.952,13.9653333 12.952,13.48 C12.952,13.128 12.8613333,12.8333333 12.68,12.596 C12.4986667,12.3586667 12.2533333,12.1893333 11.944,12.088 C12.168,11.9706667 12.344,11.8053333 12.472,11.592 C12.6,11.3786667 12.664,11.1333333 12.664,10.856 C12.664,10.4026667 12.4853333,10.0466667 12.128,9.788 C11.7706667,9.52933333 11.2613333,9.4 10.6,9.4 L10.6,9.4 L7.976,9.4 L7.976,15 L10.76,15 Z M10.488,11.76 L9.016,11.76 L9.016,10.216 L10.488,10.216 C10.8506667,10.216 11.1293333,10.2813333 11.324,10.412 C11.5186667,10.5426667 11.616,10.736 11.616,10.992 C11.616,11.2426667 11.5186667,11.4333333 11.324,11.564 C11.1293333,11.6946667 10.8506667,11.76 10.488,11.76 L10.488,11.76 Z M10.696,14.184 L9.016,14.184 L9.016,12.568 L10.696,12.568 C11.5013333,12.568 11.904,12.8373333 11.904,13.376 C11.904,13.9146667 11.5013333,14.184 10.696,14.184 L10.696,14.184 Z M17.856,15.08 C18.3146667,15.08 18.7346667,15 19.116,14.84 C19.4973333,14.68 19.8186667,14.448 20.08,14.144 L20.08,14.144 L19.408,13.504 C19.0026667,13.9466667 18.504,14.168 17.912,14.168 C17.528,14.168 17.184,14.084 16.88,13.916 C16.576,13.748 16.3386667,13.5146667 16.168,13.216 C15.9973333,12.9173333 15.912,12.5786667 15.912,12.2 C15.912,11.8213333 15.9973333,11.4826667 16.168,11.184 C16.3386667,10.8853333 16.576,10.652 16.88,10.484 C17.184,10.316 17.528,10.232 17.912,10.232 C18.504,10.232 19.0026667,10.4506667 19.408,10.888 L19.408,10.888 L20.08,10.256 C19.8186667,9.952 19.4986667,9.72 19.12,9.56 C18.7413333,9.4 18.3226667,9.32 17.864,9.32 C17.2986667,9.32 16.788,9.444 16.332,9.692 C15.876,9.94 15.5173333,10.2826667 15.256,10.72 C14.9946667,11.1573333 14.864,11.6506667 14.864,12.2 C14.864,12.7493333 14.9933333,13.2426667 15.252,13.68 C15.5106667,14.1173333 15.868,14.46 16.324,14.708 C16.78,14.956 17.2906667,15.08 17.856,15.08 Z" id="IBC" fill="#FFFFFF" fill-rule="nonzero"></path>
            </g>
        </g>
    </g>
</svg>
