<?xml version="1.0" encoding="UTF-8"?>
<svg width="20px" height="20px" viewBox="0 0 20 20" version="1.1" xmlns="http://www.w3.org/2000/svg" xmlns:xlink="http://www.w3.org/1999/xlink">
    <title>Icon_Question</title>
    <g id="IBC-Transfer" stroke="none" stroke-width="1" fill="none" fill-rule="evenodd">
        <g id="NewCosmoscan_IBCTransfer_SelectChain" transform="translate(-534.000000, -625.000000)">
            <g id="Icon_Question" transform="translate(534.000000, 625.000000)">
                <circle id="Oval-Copy-3" fill="#FFFFFF" cx="10" cy="10" r="10"></circle>
                <path d="M10.09375,13.0625 C10.2395833,13.0625 10.3645833,13.015625 10.46875,12.921875 C10.5729167,12.828125 10.6354167,12.7083333 10.65625,12.5625 C10.6875,12.1979167 11.0677083,11.6510417 11.796875,10.921875 C12.4322917,10.2864583 12.8463542,9.77604167 13.0390625,9.390625 C13.2317708,9.00520833 13.3385417,8.59895833 13.359375,8.171875 C13.4114583,7.34895833 13.140625,6.625 12.546875,6 C11.9114583,5.33333333 11.1197917,5 10.171875,5 C9.296875,5 8.54947917,5.30989583 7.9296875,5.9296875 C7.30989583,6.54947917 7,7.296875 7,8.171875 C7,8.328125 7.0546875,8.4609375 7.1640625,8.5703125 C7.2734375,8.6796875 7.40625,8.734375 7.5625,8.734375 C7.71875,8.734375 7.8515625,8.6796875 7.9609375,8.5703125 C8.0703125,8.4609375 8.125,8.328125 8.125,8.171875 C8.125,7.609375 8.32552083,7.12760417 8.7265625,6.7265625 C9.12760417,6.32552083 9.609375,6.125 10.171875,6.125 L10.1875,6.125 C10.8020833,6.125 11.3177083,6.34375 11.734375,6.78125 C12.0989583,7.16666667 12.265625,7.609375 12.234375,8.109375 C12.2239583,8.296875 12.203125,8.44791667 12.171875,8.5625 C12.140625,8.67708333 12.03125,8.87239583 11.84375,9.1484375 C11.65625,9.42447917 11.375,9.75 11,10.125 C10.5520833,10.5729167 10.2057292,10.9739583 9.9609375,11.328125 C9.71614583,11.6822917 9.57291667,12.0572917 9.53125,12.453125 C9.51041667,12.609375 9.54947917,12.7473958 9.6484375,12.8671875 C9.74739583,12.9869792 9.875,13.0520833 10.03125,13.0625 L10.09375,13.0625 L10.09375,13.0625 Z M10.078125,15.3125 C10.265625,15.3125 10.4244792,15.2473958 10.5546875,15.1171875 C10.6848958,14.9869792 10.75,14.828125 10.75,14.640625 C10.75,14.453125 10.6848958,14.2942708 10.5546875,14.1640625 C10.4244792,14.0338542 10.265625,13.96875 10.078125,13.96875 C9.890625,13.96875 9.73177083,14.0338542 9.6015625,14.1640625 C9.47135417,14.2942708 9.40625,14.453125 9.40625,14.640625 C9.40625,14.828125 9.46875,14.9895833 9.59375,15.125 C9.72916667,15.25 9.890625,15.3125 10.078125,15.3125 Z" id="" fill="#000000" fill-rule="nonzero"></path>
            </g>
        </g>
    </g>
</svg>